<svg width="64" height="64" viewBox="0 0 64 64" fill="none" xmlns="http://www.w3.org/2000/svg">
<circle cx="32" cy="32" r="32" fill="#E2DFF6"/>
<path d="M27.4375 28.1307C27.3466 27.3239 26.9716 26.6989 26.3125 26.2557C25.6534 25.8068 24.8239 25.5824 23.8239 25.5824C23.108 25.5824 22.4886 25.696 21.9659 25.9233C21.4432 26.1449 21.0369 26.4517 20.7472 26.8438C20.4631 27.2301 20.321 27.6705 20.321 28.1648C20.321 28.5795 20.4176 28.9375 20.6108 29.2386C20.8097 29.5398 21.0682 29.7926 21.3864 29.9972C21.7102 30.196 22.0568 30.3636 22.4261 30.5C22.7955 30.6307 23.1506 30.7386 23.4915 30.8239L25.196 31.267C25.7528 31.4034 26.3239 31.5881 26.9091 31.821C27.4943 32.054 28.0369 32.3608 28.5369 32.7415C29.0369 33.1222 29.4403 33.5938 29.7472 34.1562C30.0597 34.7188 30.2159 35.392 30.2159 36.1761C30.2159 37.1648 29.9602 38.0426 29.4489 38.8097C28.9432 39.5767 28.2074 40.1818 27.2415 40.625C26.2813 41.0682 25.1193 41.2898 23.7557 41.2898C22.4489 41.2898 21.3182 41.0824 20.3636 40.6676C19.4091 40.2528 18.6619 39.6648 18.1222 38.9034C17.5824 38.1364 17.2841 37.2273 17.2273 36.1761H19.8693C19.9205 36.8068 20.125 37.3324 20.483 37.7528C20.8466 38.1676 21.3097 38.4773 21.8722 38.6818C22.4403 38.8807 23.0625 38.9801 23.7386 38.9801C24.483 38.9801 25.1449 38.8636 25.7244 38.6307C26.3097 38.392 26.7699 38.0625 27.1051 37.642C27.4403 37.2159 27.608 36.7187 27.608 36.1506C27.608 35.6335 27.4602 35.2102 27.1648 34.8807C26.875 34.5511 26.4801 34.2784 25.9801 34.0625C25.4858 33.8466 24.9261 33.6562 24.3011 33.4915L22.2386 32.929C20.8409 32.5483 19.733 31.9886 18.9148 31.25C18.1023 30.5114 17.696 29.5341 17.696 28.3182C17.696 27.3125 17.9688 26.4347 18.5142 25.6847C19.0597 24.9347 19.7983 24.3523 20.7301 23.9375C21.6619 23.517 22.7131 23.3068 23.8835 23.3068C25.0653 23.3068 26.108 23.5142 27.0114 23.929C27.9205 24.3438 28.6364 24.9148 29.1591 25.642C29.6818 26.3636 29.9545 27.1932 29.9773 28.1307H27.4375ZM32.8829 41V23.5455H35.5164V31.8807H35.7295L43.0505 23.5455H46.3659L39.3261 31.4034L46.3914 41H43.221L37.5789 33.2017L35.5164 35.571V41H32.8829Z" fill="#6C5DD3"/>
</svg>
