<svg width="24" height="24" viewBox="0 0 24 24" fill="none" stroke="#131126"  xmlns="http://www.w3.org/2000/svg">
<path d="M21 9.23077H3M7.84615 5.76923V3M16.1538 5.76923L16.1538 3M7.15385 13.3846H8.53846M11.3077 13.3846H12.6923M15.4615 13.3846H16.8462M7.15385 16.8462H8.53846M11.3077 16.8462H12.6923M15.4615 16.8462H16.8462M3 7.15385L3 18.2308C3 19.7602 4.23983 21 5.76923 21L18.2308 21C19.7602 21 21 19.7602 21 18.2308V7.15388C21 5.62447 19.7602 4.38465 18.2308 4.38465L5.76924 4.38462C4.23983 4.38462 3 5.62445 3 7.15385Z" stroke-width="1.5" stroke-linecap="round"/>
</svg>
