<svg width="22" height="22" viewBox="0 0 22 22" fill="none" xmlns="http://www.w3.org/2000/svg">
<path d="M21.0784 17.33C21.0784 17.69 20.9984 18.06 20.8284 18.42C20.6584 18.78 20.4384 19.12 20.1484 19.44C19.6584 19.98 19.1184 20.37 18.5084 20.62C17.9084 20.87 17.2584 21 16.5584 21C15.5384 21 14.4484 20.76 13.2984 20.27C12.1484 19.78 10.9984 19.12 9.8584 18.29C8.7084 17.45 7.6184 16.52 6.5784 15.49C5.5484 14.45 4.6184 13.36 3.7884 12.22C2.9684 11.08 2.3084 9.94 1.8284 8.81C1.3484 7.67 1.1084 6.58 1.1084 5.54C1.1084 4.86 1.2284 4.21 1.4684 3.61C1.7084 3 2.0884 2.44 2.6184 1.94C3.2584 1.31 3.9584 1 4.6984 1C4.9784 1 5.2584 1.06 5.5084 1.18C5.7684 1.3 5.9984 1.48 6.1784 1.74L8.4984 5.01C8.6784 5.26 8.8084 5.49 8.8984 5.71C8.9884 5.92 9.0384 6.13 9.0384 6.32C9.0384 6.56 8.9684 6.8 8.8284 7.03C8.6984 7.26 8.5084 7.5 8.2684 7.74L7.5084 8.53C7.3984 8.64 7.3484 8.77 7.3484 8.93C7.3484 9.01 7.3584 9.08 7.3784 9.16C7.4084 9.24 7.4384 9.3 7.4584 9.36C7.6384 9.69 7.9484 10.12 8.3884 10.64C8.8384 11.16 9.3184 11.69 9.8384 12.22C10.3784 12.75 10.8984 13.24 11.4284 13.69C11.9484 14.13 12.3784 14.43 12.7184 14.61C12.7684 14.63 12.8284 14.66 12.8984 14.69C12.9784 14.72 13.0584 14.73 13.1484 14.73C13.3184 14.73 13.4484 14.67 13.5584 14.56L14.3184 13.81C14.5684 13.56 14.8084 13.37 15.0384 13.25C15.2684 13.11 15.4984 13.04 15.7484 13.04C15.9384 13.04 16.1384 13.08 16.3584 13.17C16.5784 13.26 16.8084 13.39 17.0584 13.56L20.3684 15.91C20.6284 16.09 20.8084 16.3 20.9184 16.55C21.0184 16.8 21.0784 17.05 21.0784 17.33Z" stroke="#131126" stroke-width="1.5" stroke-miterlimit="10"/>
</svg>
