<svg width="24" height="24" viewBox="0 0 24 24" fill="none" xmlns="http://www.w3.org/2000/svg">
<path d="M23.3687 4.12212C23.3687 3.18973 23.0056 2.31317 22.3464 1.65381C21.687 0.994462 20.8105 0.631348 19.8782 0.631348C18.9458 0.631348 18.0693 0.994462 17.4101 1.65372L14.8791 4.18474L14.2397 3.54524C14.0646 3.37025 13.746 3.16173 13.2217 3.16173C12.5859 3.16173 11.8013 3.48479 11.3564 3.92983C11.0227 4.26358 10.8389 4.70735 10.8389 5.1793C10.8389 5.65134 11.0227 6.0951 11.3564 6.42895L12.3175 7.38997L1.52095 18.1872C0.947539 18.7605 0.631836 19.5229 0.631836 20.3338C0.631836 21.1446 0.947539 21.907 1.52095 22.4805C2.11276 23.0723 2.88996 23.3682 3.66744 23.3682C4.44464 23.3682 5.22221 23.0721 5.81393 22.4805L16.6104 11.6833L17.5715 12.6444C17.9052 12.9782 18.349 13.162 18.821 13.162C19.293 13.162 19.7367 12.9782 20.0704 12.6445C20.3706 12.3443 20.6344 11.8566 20.7588 11.3717C20.931 10.7012 20.8229 10.1291 20.4548 9.76095L19.8153 9.12145L22.3462 6.59034C23.0056 5.93099 23.3686 5.05451 23.3687 4.12212ZM4.85277 21.5192C4.19908 22.1729 3.13553 22.1729 2.48201 21.5192C2.1654 21.2026 1.99106 20.7815 1.99106 20.3338C1.99106 19.886 2.1654 19.465 2.48201 19.1484L13.2785 8.35118L15.6493 10.722L4.85277 21.5192ZM19.1093 11.6833C19.0323 11.7603 18.93 11.8026 18.8211 11.8026C18.7122 11.8026 18.6098 11.7602 18.5327 11.6832L17.0911 10.2415C17.0911 10.2415 17.0911 10.2414 17.0911 10.2414C17.091 10.2414 17.091 10.2413 17.091 10.2413L13.7595 6.90969C13.7595 6.90969 13.7593 6.90941 13.7592 6.90932C13.7591 6.90923 13.759 6.90914 13.7589 6.90896L12.3175 5.46765C12.2405 5.39062 12.1981 5.28831 12.1981 5.1793C12.1981 5.07037 12.2405 4.96797 12.3175 4.89085C12.4886 4.71976 12.9208 4.52094 13.2217 4.52094C13.2612 4.52094 13.2863 4.52475 13.2999 4.52765L14.3982 5.62605C14.3983 5.62623 14.3985 5.62632 14.3986 5.62651C14.3987 5.62669 14.3989 5.62678 14.3991 5.62696L18.373 9.60101C18.3733 9.60128 18.3735 9.60164 18.3738 9.60192C18.3741 9.60219 18.3744 9.60246 18.3747 9.60273L19.4737 10.7019C19.5226 10.8775 19.3564 11.4362 19.1093 11.6833ZM21.3852 5.62904L18.8543 8.16015L15.8403 5.14595L18.3713 2.61484C18.7738 2.21231 19.3089 1.99056 19.8782 1.99056C20.4474 1.99056 20.9827 2.21231 21.3852 2.61493C21.7877 3.01746 22.0095 3.55276 22.0095 4.12203C22.0095 4.6914 21.7877 5.2266 21.3852 5.62904Z" fill="black"/>
</svg>
