<svg width="40" height="40" viewBox="0 0 40 40" fill="none" xmlns="http://www.w3.org/2000/svg">
<g clip-path="url(#clip0_403_5366)">
<path d="M9.74627 9.77209L0.409138 19.0943C0.27935 19.2238 0.176395 19.3776 0.106152 19.5469C0.0359096 19.7162 -0.000244141 19.8976 -0.000244141 20.0809C-0.000244141 20.2641 0.0359096 20.4455 0.106152 20.6148C0.176395 20.7841 0.27935 20.9379 0.409138 21.0674L8.33111 29.0253C8.46088 29.1549 8.61496 29.2578 8.78456 29.328C8.95416 29.3982 9.13595 29.4343 9.31954 29.4343C9.50313 29.4343 9.68492 29.3982 9.85452 29.328C10.0241 29.2578 10.1782 29.1549 10.308 29.0253L19.6451 19.7031L9.74627 9.77209Z" fill="#CF4037"/>
<path d="M39.5908 20.9632C39.7206 20.8336 39.8236 20.6798 39.8938 20.5105C39.9641 20.3413 40.0002 20.1598 40.0002 19.9766C40.0002 19.7934 39.9641 19.6119 39.8938 19.4427C39.8236 19.2734 39.7206 19.1196 39.5908 18.99L31.6688 11.0322C31.5391 10.9025 31.385 10.7996 31.2154 10.7295C31.0458 10.6593 30.864 10.6232 30.6804 10.6232C30.4968 10.6232 30.315 10.6593 30.1454 10.7295C29.9758 10.7996 29.8217 10.9025 29.692 11.0322L11.0378 29.657C10.908 29.7866 10.8049 29.9404 10.7346 30.1098C10.6644 30.2791 10.6282 30.4606 10.6282 30.6439C10.6282 30.8272 10.6644 31.0087 10.7346 31.178C10.8049 31.3473 10.908 31.5012 11.0378 31.6307L18.9598 39.5886C19.0896 39.7182 19.2437 39.8211 19.4133 39.8913C19.5829 39.9615 19.7647 39.9976 19.9482 39.9976C20.1318 39.9976 20.3136 39.9615 20.4832 39.8913C20.6528 39.8211 20.8069 39.7182 20.9367 39.5886L39.5908 20.9632Z" fill="#255398"/>
<path d="M20.3968 18.9866L29.0057 10.343C29.1356 10.2134 29.2386 10.0596 29.3089 9.89027C29.3792 9.72094 29.4153 9.53944 29.4153 9.35614C29.4153 9.17285 29.3792 8.99135 29.3089 8.82202C29.2386 8.65269 29.1356 8.49885 29.0057 8.3693L21.0843 0.411447C20.9545 0.281784 20.8004 0.178923 20.6308 0.108743C20.4612 0.0385635 20.2794 0.00244141 20.0958 0.00244141C19.9123 0.00244141 19.7305 0.0385635 19.5609 0.108743C19.3913 0.178923 19.2372 0.281784 19.1074 0.411447L10.4985 9.0551L20.3968 18.9866Z" fill="#CF4037"/>
<path d="M11.8076 30.5236L12.5957 29.7368C13.7101 28.6242 15.0118 28.7252 16.1073 29.8183C17.779 31.4873 16.8808 32.691 16.285 33.2858L15.4299 34.1396L11.8076 30.5236Z" fill="white"/>
<path d="M15.3411 32.2886C15.7831 31.8377 15.3025 31.2049 14.9616 30.864C14.5675 30.4706 13.9432 30.0007 13.4961 30.4466L15.3411 32.2886Z" fill="#255398"/>
<path d="M19.1696 27.8736C19.8805 28.5834 20.1208 29.5616 19.3087 30.3724C18.4966 31.1832 17.5169 30.9433 16.8059 30.2335C16.095 29.5237 15.8547 28.5455 16.6668 27.7347C17.4789 26.9239 18.4586 27.1638 19.1696 27.8736Z" fill="white"/>
<path d="M17.5347 29.3121C17.794 29.5711 18.183 29.893 18.4088 29.667C18.6346 29.4416 18.3127 29.0532 18.0534 28.7943C17.794 28.5354 17.4045 28.214 17.1792 28.4394C16.954 28.6648 17.2748 29.0538 17.5347 29.3121Z" fill="#255398"/>
<path d="M19.4885 25.8475H19.5081C19.3449 25.4831 19.3544 25.0512 19.6567 24.7488C19.9977 24.4084 20.4353 24.4128 20.8433 24.6098L20.8528 24.6003C20.651 24.2354 20.6175 23.7895 20.9445 23.4631C21.4391 22.9693 21.9723 23.1372 22.5295 23.6936L24.2107 25.3721L23.269 26.3123L21.8952 24.9407C21.7946 24.8403 21.5783 24.6528 21.4391 24.7923C21.3189 24.9123 21.3525 25.0228 21.4246 25.1422C21.4922 25.2571 21.6073 25.3631 21.6889 25.4446L22.9141 26.6678L21.9723 27.608L20.5694 26.2074C20.4543 26.0919 20.2861 25.9725 20.1659 26.0919C19.9351 26.3229 20.257 26.6047 20.4107 26.7587L21.6163 27.9624L20.6745 28.9026L18.1382 26.3704L19.0894 25.4206L19.4885 25.8475ZM23.013 21.5034L25.5499 24.0362L24.6081 24.9759L22.0718 22.4436L23.013 21.5034ZM21.1971 21.7249C21.0532 21.5804 20.9721 21.3853 20.9711 21.1816C20.9702 20.9779 21.0495 20.782 21.1921 20.6362C21.495 20.3343 21.9846 20.3148 22.292 20.6222C22.5944 20.9241 22.6089 21.4185 22.3015 21.7254C22.1549 21.8715 21.9563 21.9535 21.7492 21.9534C21.5421 21.9532 21.3435 21.8711 21.1971 21.7249ZM24.7249 20.735H24.7439C24.5617 20.3706 24.5472 19.8667 24.8596 19.5553C25.4023 19.0135 25.9981 19.3394 26.4548 19.7953L28.1264 21.4643L27.1847 22.4045L25.902 21.1245C25.6857 20.9085 25.5175 20.7696 25.3587 20.928C25.1765 21.11 25.3347 21.2969 25.594 21.5558L26.8141 22.774L25.8724 23.7142L23.336 21.1819L24.2778 20.2417L24.7249 20.735ZM29.484 17.5755C30.195 18.2853 30.4353 19.2635 29.6238 20.0748C28.8117 20.8851 27.8319 20.6451 27.121 19.9353C26.41 19.2261 26.1697 18.2473 26.9812 17.4365C27.7933 16.6263 28.7731 16.8663 29.484 17.5755Z" fill="white"/>
<path d="M27.8488 19.0145C28.1082 19.2735 28.4972 19.5949 28.723 19.3694C28.9488 19.144 28.6268 18.7551 28.3675 18.4967C28.1082 18.2378 27.7192 17.9164 27.4934 18.1418C27.2676 18.3667 27.5895 18.7551 27.8488 19.0145Z" fill="#255398"/>
<path d="M29.0862 16.7451L27.8582 14.4991L28.8145 13.5443L29.7541 16.0788L29.0862 16.7451ZM31.2391 16.5336C31.4699 16.5431 31.8013 16.4996 31.9741 16.3272C32.0557 16.2457 32.1182 16.1067 32.0266 16.0152C31.9355 15.9243 31.8013 15.9533 31.58 16.0588C31.0804 16.2981 30.5952 16.3991 30.1632 15.9672C29.6395 15.4444 29.7356 14.6866 30.3264 14.0968C30.6025 13.8317 30.9389 13.6373 31.3067 13.5304L31.6717 14.5376C31.4604 14.5471 31.2106 14.5471 31.0524 14.7056C30.9848 14.7731 30.9563 14.888 31.0379 14.9695C31.1675 15.0984 31.4174 14.9835 31.5565 14.9215C32.0271 14.71 32.4838 14.6191 32.8968 15.0315C33.4686 15.6017 33.2959 16.4081 32.7722 16.9304C32.4262 17.2758 32.0562 17.4438 31.5957 17.5782L31.2391 16.5336ZM19.8603 38.7571L16.2385 35.1412L17.1322 34.2489C17.9874 33.3957 18.9241 33.0168 19.8753 33.966C20.8171 34.9063 20.5287 35.769 19.654 36.5943L20.8406 37.7789L19.8603 38.7571Z" fill="white"/>
<path d="M17.874 34.8671L17.8069 34.9441L18.643 35.7784C18.9264 35.5239 18.9459 35.2081 18.6765 34.9391C18.4457 34.7092 18.1143 34.6278 17.874 34.8671Z" fill="#255398"/>
<path d="M20.9981 32.5559L23.535 35.0882L22.5933 36.0284L20.0569 33.4956L20.9981 32.5559ZM19.1822 32.7769C19.0385 32.6323 18.9574 32.4371 18.9565 32.2334C18.9557 32.0297 19.0352 31.8339 19.1778 31.6882C19.4807 31.3857 19.9703 31.3668 20.2777 31.6737C20.5806 31.9761 20.5946 32.4699 20.2872 32.7769C20.1406 32.923 19.9419 33.0051 19.7347 33.0051C19.5275 33.0051 19.3288 32.923 19.1822 32.7769ZM23.7871 34.8365L22.8504 32.1842C22.7352 32.3092 22.6195 32.4432 22.4999 32.5631L22.1394 32.9231L21.3855 32.1697L23.4316 30.1268L24.3538 32.7551C24.4544 32.6446 24.5511 32.5391 24.6568 32.4337L25.0458 32.0453L25.8143 32.8126L23.7871 34.8365ZM26.1446 32.4833L25.2078 29.8311C25.0927 29.9561 24.9776 30.0906 24.8574 30.21L24.4969 30.5699L23.7424 29.8166L25.7891 27.7737L26.7113 30.4019C26.8119 30.2915 26.9086 30.186 27.0142 30.0805L27.4032 29.6921L28.1717 30.4594L26.1446 32.4833ZM30.7975 27.8379L29.8557 28.7781L29.4813 28.3178H29.4623C29.6109 28.7061 29.6014 29.138 29.294 29.4449C28.6412 30.0973 27.6654 29.373 27.1707 28.8791C26.6705 28.3797 26.0227 27.435 26.6705 26.7877C26.9734 26.4852 27.3624 26.4997 27.7319 26.6292V26.6102L27.3043 26.2604L28.26 25.3062L30.7975 27.8379Z" fill="white"/>
<path d="M28.3602 27.478C28.2925 27.4105 28.1729 27.281 28.0338 27.1901C27.8991 27.1036 27.7549 27.0556 27.6442 27.1661C27.4184 27.3921 27.8857 27.8491 28.0528 28.0148C28.1936 28.1554 28.5189 28.4707 28.7061 28.2838C28.9509 28.0388 28.501 27.6192 28.3602 27.478Z" fill="#255398"/>
<path d="M20.3616 11.8692C21.7071 11.8692 22.7979 10.7802 22.7979 9.43678C22.7979 8.09341 21.7071 7.00439 20.3616 7.00439C19.0161 7.00439 17.9253 8.09341 17.9253 9.43678C17.9253 10.7802 19.0161 11.8692 20.3616 11.8692Z" fill="white"/>
<path d="M13.0818 22.4324C14.4273 22.4324 15.5181 21.3434 15.5181 20C15.5181 18.6566 14.4273 17.5676 13.0818 17.5676C11.7363 17.5676 10.6455 18.6566 10.6455 20C10.6455 21.3434 11.7363 22.4324 13.0818 22.4324Z" fill="white"/>
<path d="M5.80201 22.4324C7.14753 22.4324 8.23829 21.3434 8.23829 20C8.23829 18.6566 7.14753 17.5676 5.80201 17.5676C4.45648 17.5676 3.36572 18.6566 3.36572 20C3.36572 21.3434 4.45648 22.4324 5.80201 22.4324Z" fill="white"/>
<path d="M23.2697 38.4602H23.6022C23.7464 38.4602 23.9074 38.5143 23.9074 38.6996C23.9074 38.9088 23.7084 38.9278 23.5256 38.9278H23.2697V39.0177H23.5832L23.9454 39.5723H24.06L23.7006 39.0204C23.8722 38.9931 24.0108 38.8977 24.0108 38.7024C24.0108 38.4848 23.8912 38.3704 23.6184 38.3704H23.1663V39.5723H23.2697V38.4602Z" fill="black"/>
<path d="M23.5362 37.9541C24.1001 37.9541 24.555 38.4083 24.555 38.9714C24.555 39.5344 24.1001 39.9886 23.5362 39.9886C22.9728 39.9886 22.5178 39.5344 22.5178 38.9714C22.5178 38.4083 22.9728 37.9541 23.5362 37.9541L23.5389 38.0439C23.013 38.0439 22.6207 38.4463 22.6207 38.9714C22.6207 39.4853 23.018 39.8988 23.5389 39.8988C24.0593 39.8988 24.4511 39.4825 24.4511 38.9686C24.4511 38.4491 24.0615 38.0439 23.5389 38.0439L23.5362 37.9541Z" fill="black"/>
</g>
<defs>
<clipPath id="clip0_403_5366">
<rect width="40" height="40" fill="white"/>
</clipPath>
</defs>
</svg>
