<svg
  width="24"
  height="24"
  viewBox="0 0 24 24"
  fill="#131126"
  xmlns="http://www.w3.org/2000/svg"
>
<path
    fill-rule="evenodd"
    clip-rule="evenodd"
    d="M18.5027 3.00001C19.8819 3.00001 21 4.1181 21 5.49733C21 6.11858 20.7684 6.71753 20.3505 7.17722L14.5714 13.5342V18.9197C14.5714 20.3533 13.0627 21.2858 11.7804 20.6446L10.4947 20.0018C9.84129 19.6751 9.42857 19.0073 9.42857 18.2768V13.5342L3.64946 7.17722C3.23156 6.71753 3 6.11858 3 5.49733C3 4.11809 4.11809 3 5.49733 3L18.5027 3.00001ZM19.7143 5.49733C19.7143 4.82818 19.1718 4.28572 18.5027 4.28572L5.49733 4.28571C4.82817 4.28571 4.28571 4.82817 4.28571 5.49733C4.28571 5.79874 4.39806 6.08933 4.60081 6.31235L10.7143 13.0372V18.2768C10.7143 18.5203 10.8519 18.7429 11.0696 18.8518L12.3554 19.4947C12.7828 19.7084 13.2857 19.3976 13.2857 18.9197V13.0372L19.3992 6.31235C19.6019 6.08933 19.7143 5.79874 19.7143 5.49733Z"
  />
</svg>
