<svg width="24" height="24" viewBox="0 0 24 24" fill="none" xmlns="http://www.w3.org/2000/svg">
<mask id="path-1-inside-1_319_6500" fill="white">
<rect x="3" y="4" width="4" height="4" rx="1"/>
</mask>
<rect x="3" y="4" width="4" height="4" rx="1" stroke="#131126" stroke-width="2.4" mask="url(#path-1-inside-1_319_6500)"/>
<mask id="path-2-inside-2_319_6500" fill="white">
<rect x="9" y="4" width="12" height="4" rx="1"/>
</mask>
<rect x="9" y="4" width="12" height="4" rx="1" stroke="#131126" stroke-width="2.4" mask="url(#path-2-inside-2_319_6500)"/>
<mask id="path-3-inside-3_319_6500" fill="white">
<rect x="3" y="10" width="4" height="4" rx="1"/>
</mask>
<rect x="3" y="10" width="4" height="4" rx="1" stroke="#131126" stroke-width="2.4" mask="url(#path-3-inside-3_319_6500)"/>
<mask id="path-4-inside-4_319_6500" fill="white">
<rect x="9" y="10" width="12" height="4" rx="1"/>
</mask>
<rect x="9" y="10" width="12" height="4" rx="1" stroke="#131126" stroke-width="2.4" mask="url(#path-4-inside-4_319_6500)"/>
<mask id="path-5-inside-5_319_6500" fill="white">
<rect x="3" y="16" width="4" height="4" rx="1"/>
</mask>
<rect x="3" y="16" width="4" height="4" rx="1" stroke="#131126" stroke-width="2.4" mask="url(#path-5-inside-5_319_6500)"/>
<mask id="path-6-inside-6_319_6500" fill="white">
<rect x="9" y="16" width="12" height="4" rx="1"/>
</mask>
<rect x="9" y="16" width="12" height="4" rx="1" stroke="#131126" stroke-width="2.4" mask="url(#path-6-inside-6_319_6500)"/>
</svg>
