<svg width="48" height="48" viewBox="0 0 48 48" fill="none" xmlns="http://www.w3.org/2000/svg">
<path d="M24.0546 0H23.9454C10.7207 0 0 10.7207 0 23.9453V24.0547C0 37.2793 10.7207 48 23.9454 48H24.0546C37.2793 48 48 37.2793 48 24.0547V23.9453C48 10.7207 37.2793 0 24.0546 0Z" fill="url(#paint0_linear_1_11)"/>
<path d="M38.2902 23.9992V24.0816C38.2515 30.9513 33.3377 36.6908 26.838 38.0059C26.3974 38.0933 25.9518 38.1623 25.4977 38.211C25.0066 38.2615 24.5055 38.2901 24.001 38.2901C22.0166 38.2901 20.1264 37.8848 18.4078 37.1499L11.7769 37.8562C10.6451 37.9773 9.80936 36.822 10.2786 35.7861L12.0611 31.8392C10.5762 29.5874 9.71014 26.8917 9.71014 23.9992C9.71014 16.1223 16.1224 9.71004 24.001 9.71004C31.4508 9.71004 37.5872 15.4412 38.233 22.7262C38.2717 23.1432 38.2902 23.5721 38.2902 23.9992Z" fill="white"/>
<path d="M30.8706 19.8271C31.5113 19.3024 32.3908 20.0877 31.9401 20.7822L28.94 25.4102L27.3525 27.8587C27.0145 28.38 26.3048 28.5045 25.8087 28.1295L23.1769 26.1333L21.5541 24.904C21.4229 24.8048 21.2396 24.8082 21.1118 24.9124L17.1296 28.1614C16.4889 28.6844 15.6111 27.8991 16.0617 27.2046L18.8718 22.8726L20.4593 20.424C20.7973 19.9027 21.507 19.7783 22.0031 20.1533L24.5575 22.0889L26.1787 23.3165C26.3115 23.4157 26.4948 23.4124 26.6226 23.3081L30.8706 19.8254V19.8271Z" fill="url(#paint1_linear_1_11)"/>
<defs>
<linearGradient id="paint0_linear_1_11" x1="7.01258" y1="40.9874" x2="40.9857" y2="7.01426" gradientUnits="userSpaceOnUse">
<stop stop-color="#0498FA"/>
<stop offset="0.34" stop-color="#5C5EFE"/>
<stop offset="0.73" stop-color="#F44E90"/>
<stop offset="1" stop-color="#FA8679"/>
</linearGradient>
<linearGradient id="paint1_linear_1_11" x1="18.0444" y1="30.0012" x2="30.0062" y2="18.0394" gradientUnits="userSpaceOnUse">
<stop stop-color="#0498FA"/>
<stop offset="0.34" stop-color="#5C5EFE"/>
<stop offset="0.73" stop-color="#F44E90"/>
<stop offset="1" stop-color="#FA8679"/>
</linearGradient>
</defs>
</svg>
