<svg
  width="24"
  height="24"
  viewBox="0 0 24 24"
  fill="#CB8400"
  xmlns="http://www.w3.org/2000/svg"
>
<path
    d="M12 21.9996C6.50742 21.9996 2 17.4922 2 11.9996C2 6.50706 6.50742 1.99963 12 1.99963C17.4926 1.99963 22 6.50706 22 11.9996C22 17.4922 17.4926 21.9996 12 21.9996ZM13.1719 7.31213C13.1719 6.66612 12.646 6.14026 12 6.14026C11.354 6.14026 10.8281 6.66612 10.8281 7.31213V13.1715C10.8281 13.8175 11.354 14.3434 12 14.3434C12.646 14.3434 13.1719 13.8175 13.1719 13.1715V7.31213ZM12 15.5153C11.354 15.5153 10.8281 16.0411 10.8281 16.6871C10.8281 17.3331 11.354 17.859 12 17.859C12.646 17.859 13.1719 17.3331 13.1719 16.6871C13.1719 16.0411 12.646 15.5153 12 15.5153Z"
  />
</svg>
