<svg width="24" height="24" viewBox="0 0 24 24" fill="none" xmlns="http://www.w3.org/2000/svg">
<path d="M8.34615 5.76921V7.84614M15.9615 14.0769C15.9615 15.9887 14.4118 17.5385 12.5 17.5385C10.5882 17.5385 9.03846 15.9887 9.03846 14.0769C9.03846 12.1652 10.5882 10.6154 12.5 10.6154C14.4118 10.6154 15.9615 12.1652 15.9615 14.0769ZM6.26923 21L18.7308 21C20.2602 21 21.5 19.7602 21.5 18.2308V8.30089C21.5 7.56644 21.2082 6.86207 20.6889 6.34274L18.1572 3.81109C17.6379 3.29176 16.9335 3 16.1991 3L6.26923 3.00001C4.73983 3.00002 3.5 4.23984 3.5 5.76925L3.5 18.2308C3.5 19.7602 4.73983 21 6.26923 21Z" stroke="#131126" stroke-width="1.5" stroke-linecap="round"/>
</svg>
