<svg
  width="32"
  height="32"
  viewBox="0 0 32 32"
  fill="none"
  xmlns="http://www.w3.org/2000/svg"
>
<rect width="32" height="32" rx="8" fill="#FC8019" />
<g clip-path="url(#clip0_563_84251)">
<path
      d="M16.0346 28.9992C16.0187 28.9876 16.0014 28.9718 15.9828 28.9561C15.6863 28.578 13.8526 26.2152 11.9843 23.1844C11.4233 22.219 11.0598 21.4656 11.1302 21.2707C11.313 20.7641 14.5704 20.4865 15.5733 20.946C15.8784 21.0854 15.8704 21.2694 15.8704 21.3774C15.8704 21.8409 15.8485 23.0852 15.8485 23.0852C15.8485 23.3423 16.0512 23.5508 16.3018 23.5502C16.5524 23.5502 16.7544 23.3403 16.7538 23.0825L16.7491 19.9833H16.7484C16.7484 19.714 16.4626 19.6469 16.4095 19.636C15.8857 19.6326 14.823 19.6299 13.6811 19.6299C11.1621 19.6299 10.5985 19.7365 10.1718 19.448C9.24461 18.8245 7.72856 14.6211 7.69333 12.2555C7.64348 8.91912 9.5643 6.03052 12.2707 4.59955C13.4006 4.01431 14.6767 3.68408 16.026 3.68408C20.3089 3.68408 23.8369 7.00957 24.3061 11.2888C24.3061 11.2922 24.3061 11.297 24.3068 11.3004C24.3932 12.3349 18.8507 12.5543 17.7547 12.2535C17.5866 12.2077 17.544 12.0299 17.544 11.954C17.5434 11.1678 17.538 8.95399 17.538 8.95399C17.5374 8.69624 17.334 8.48839 17.0834 8.48839C16.8335 8.48839 16.6308 8.69829 16.6308 8.95604L16.6408 13.0336C16.6487 13.2907 16.8581 13.3597 16.9159 13.372C17.5394 13.372 18.9969 13.3713 20.3548 13.3713C22.1899 13.3713 22.9609 13.5901 23.474 13.9914C23.8149 14.2588 23.9465 14.7709 23.8315 15.4368C22.802 21.3575 16.2819 28.6943 16.0366 28.9999L16.0346 28.9992Z"
      fill="white"
    />
</g>
<defs>
<clipPath id="clip0_563_84251">
<rect width="18" height="26" fill="white" transform="translate(7 3)" />
</clipPath>
</defs>
</svg>
