<?xml version="1.0" encoding="UTF-8"?>
<svg width="10px" height="10px" viewBox="0 0 10 10" version="1.1" xmlns="http://www.w3.org/2000/svg" xmlns:xlink="http://www.w3.org/1999/xlink">
    <!-- Generator: Sketch 57.1 (83088) - https://sketch.com -->
    <title>telephone</title>
    <desc>Created with Sketch.</desc>
    <g id="Page-1" stroke="none" stroke-width="1"  fill-rule="evenodd">
        <g id="Order-placed-screen" transform="translate(-314.000000, -649.000000)"  fill-rule="nonzero">
            <g id="telephone" transform="translate(314.000000, 649.000000)">
                <path d="M7.59571726,6.60914761 C7.26931393,6.28690229 6.86182952,6.28690229 6.5375052,6.60914761 C6.29010395,6.85446985 6.0427027,7.0997921 5.79945946,7.34927235 C5.73293139,7.41787942 5.67679834,7.43243243 5.59571726,7.38669439 C5.4356341,7.2993763 5.26515593,7.22869023 5.11130977,7.13305613 C4.39405405,6.68191268 3.79322245,6.1018711 3.26099792,5.44906445 C2.99696466,5.12474012 2.76203742,4.77754678 2.59779626,4.38669439 C2.56453222,4.30769231 2.57076923,4.25571726 2.6352183,4.19126819 C2.88261954,3.95218295 3.12378378,3.70686071 3.36702703,3.46153846 C3.70590437,3.12058212 3.70590437,2.72141372 3.36494802,2.37837838 C3.17160083,2.18295218 2.97825364,1.99168399 2.78490644,1.7962578 C2.58532225,1.5966736 2.38781705,1.3950104 2.18615385,1.1975052 C1.85975052,0.879417879 1.45226611,0.879417879 1.12794179,1.1995842 C0.878461538,1.44490644 0.639376299,1.6964657 0.385738046,1.93762994 C0.150810811,2.16008316 0.0323076923,2.43243243 0.00735966736,2.75051975 C-0.0321413721,3.26819127 0.0946777547,3.75675676 0.273471933,4.23284823 C0.639376299,5.21829522 1.19654886,6.09355509 1.87222453,6.8960499 C2.78490644,7.98128898 3.87430353,8.83991684 5.14873181,9.45945946 C5.72253638,9.73804574 6.31713098,9.95218295 6.96370062,9.98752599 C7.40860707,10.012474 7.79530146,9.9002079 8.10507277,9.55301455 C8.31713098,9.31600832 8.55621622,9.0997921 8.78074844,8.87318087 C9.11338877,8.53638254 9.11546778,8.12889813 8.78490644,7.7962578 C8.38989605,7.3991684 7.99280665,7.004158 7.59571726,6.60914761 Z" id="Path"></path>
                <path d="M7.19862786,4.95218295 L7.96577963,4.82120582 C7.84519751,4.11642412 7.51255717,3.47817048 7.00735967,2.97089397 C6.47305613,2.43659044 5.79738046,2.0997921 5.05309771,1.995842 L4.9449896,2.76715177 C5.52087318,2.84823285 6.0447817,3.10810811 6.45850312,3.52182952 C6.84935551,3.91268191 7.10507277,4.40748441 7.19862786,4.95218295 Z" id="Path"></path>
                <path d="M8.39821206,1.61746362 C7.51255717,0.731808732 6.39197505,0.172557173 5.15496881,8.43769499e-15 L5.04686071,0.771309771 C6.11546778,0.920997921 7.08428274,1.40540541 7.84935551,2.16839917 C8.57492723,2.89397089 9.05101871,3.81081081 9.22357588,4.81912682 L9.99072765,4.68814969 C9.78906445,3.51975052 9.2381289,2.45945946 8.39821206,1.61746362 Z" id="Path"></path>
            </g>
        </g>
    </g>
</svg>