<svg width="24" height="24" viewBox="0 0 24 24" fill="none" stroke="#131126" xmlns="http://www.w3.org/2000/svg">
<path d="M21 5.97952C17.67 5.64952 14.32 5.47952 10.98 5.47952C9 5.47952 7.02 5.57952 5.04 5.77952L3 5.97952" stroke-width="1.5" stroke-linecap="round" stroke-linejoin="round"/>
<path d="M8.49939 4.96905L8.71939 3.65905C8.87939 2.70905 8.99939 1.99905 10.6894 1.99905H13.3094C14.9994 1.99905 15.1294 2.74905 15.2794 3.66905L15.4994 4.96905" stroke-width="1.5" stroke-linecap="round" stroke-linejoin="round"/>
<path d="M18.85 9.13989L18.2 19.2099C18.09 20.7799 18 21.9999 15.21 21.9999H8.79002C6.00002 21.9999 5.91002 20.7799 5.80002 19.2099L5.15002 9.13989" stroke-width="1.5" stroke-linecap="round" stroke-linejoin="round"/>
<path d="M10.3301 16.5H13.6601" stroke-width="1.5" stroke-linecap="round" stroke-linejoin="round"/>
<path d="M9.60059 12H14.6006" stroke-width="1.5" stroke-linecap="round" stroke-linejoin="round"/>
</svg>
