<svg width="48" height="48" viewBox="0 0 48 48" fill="none" xmlns="http://www.w3.org/2000/svg">
<g clip-path="url(#clip0_1_56)">
<path d="M24 48C37.2548 48 48 37.2548 48 24C48 10.7452 37.2548 0 24 0C10.7452 0 0 10.7452 0 24C0 37.2548 10.7452 48 24 48Z" fill="#665CAC"/>
<path d="M26.5263 11.3684H21.4737C19.1286 11.3684 16.8796 12.3 15.2214 13.9582C13.5632 15.6164 12.6316 17.8655 12.6316 20.2105V24C12.6309 25.6739 13.1053 27.3136 13.9998 28.7285C14.8942 30.1433 16.1719 31.2753 17.6842 31.9926V36.2147C17.6857 36.2971 17.7112 36.3772 17.7576 36.4453C17.804 36.5134 17.8693 36.5664 17.9454 36.598C18.0215 36.6295 18.1052 36.6381 18.1861 36.6228C18.2671 36.6074 18.3418 36.5688 18.4011 36.5116L22.0705 32.8421H26.5263C28.8714 32.8421 31.1204 31.9105 32.7786 30.2523C34.4369 28.5941 35.3684 26.3451 35.3684 24V20.2105C35.3684 17.8655 34.4369 15.6164 32.7786 13.9582C31.1204 12.3 28.8714 11.3684 26.5263 11.3684ZM29.8358 27.9411L28.5726 29.2042C27.2274 30.5211 23.7158 29.0179 20.6211 25.8568C17.5263 22.6958 16.1684 19.1495 17.4632 17.8326L18.7263 16.5695C18.9739 16.3472 19.2958 16.2259 19.6284 16.2294C19.9611 16.2329 20.2803 16.361 20.5232 16.5884L22.3674 18.4832C22.5139 18.6343 22.6195 18.8202 22.6743 19.0234C22.7292 19.2266 22.7314 19.4404 22.6809 19.6447C22.6304 19.8491 22.5287 20.0372 22.3855 20.1914C22.2423 20.3456 22.0622 20.4609 21.8621 20.5263C21.5656 20.6173 21.3155 20.819 21.1638 21.0895C21.0121 21.36 20.9704 21.6785 21.0474 21.9789C21.3632 23.3811 23.1442 25.1368 24.4705 25.4811C24.7696 25.5523 25.0843 25.5121 25.3558 25.3679C25.6272 25.2237 25.8368 24.9855 25.9453 24.6979C26.0153 24.4973 26.1358 24.3181 26.2952 24.1776C26.4546 24.037 26.6474 23.9399 26.8552 23.8955C27.063 23.851 27.2787 23.8609 27.4816 23.924C27.6845 23.9871 27.8678 24.1014 28.0137 24.2558L29.8548 26.1505C30.0759 26.3974 30.1965 26.7181 30.193 27.0495C30.1895 27.3809 30.0621 27.6989 29.8358 27.9411ZM25.1495 17.3684C25.0239 17.3678 24.8984 17.3752 24.7737 17.3905C24.6627 17.4027 24.5515 17.3702 24.4644 17.3004C24.3774 17.2305 24.3216 17.1289 24.3095 17.0179C24.2973 16.9069 24.3298 16.7957 24.3997 16.7086C24.4695 16.6216 24.5711 16.5658 24.6821 16.5537C24.8373 16.5358 24.9933 16.5274 25.1495 16.5284C26.267 16.5276 27.3392 16.9705 28.1303 17.7598C28.9214 18.5492 29.3668 19.6203 29.3684 20.7379C29.3695 20.8941 29.361 21.0501 29.3432 21.2053C29.3372 21.2602 29.3204 21.3134 29.2938 21.3619C29.2672 21.4104 29.2313 21.4531 29.1882 21.4877C29.1451 21.5223 29.0956 21.5481 29.0426 21.5636C28.9895 21.579 28.9339 21.5839 28.879 21.5779C28.824 21.5719 28.7708 21.5551 28.7223 21.5285C28.6739 21.5019 28.6311 21.4661 28.5965 21.423C28.5619 21.3799 28.5361 21.3304 28.5207 21.2773C28.5052 21.2242 28.5003 21.1686 28.5063 21.1137C28.5201 20.9889 28.5275 20.8635 28.5284 20.7379C28.5268 19.8431 28.1699 18.9856 27.5363 18.3538C26.9028 17.722 26.0443 17.3676 25.1495 17.3684ZM27.6758 20.7379C27.6667 20.8434 27.6183 20.9417 27.5402 21.0132C27.4622 21.0848 27.3601 21.1245 27.2542 21.1245C27.1483 21.1245 27.0463 21.0848 26.9682 21.0132C26.8902 20.9417 26.8418 20.8434 26.8326 20.7379C26.8326 20.2915 26.6553 19.8634 26.3397 19.5477C26.024 19.2321 25.5959 19.0547 25.1495 19.0547C25.0911 19.0598 25.0322 19.0527 24.9767 19.0338C24.9212 19.0149 24.8702 18.9847 24.827 18.945C24.7837 18.9054 24.7492 18.8572 24.7256 18.8035C24.702 18.7498 24.6898 18.6918 24.6898 18.6332C24.6898 18.5745 24.702 18.5165 24.7256 18.4628C24.7492 18.4091 24.7837 18.3609 24.827 18.3213C24.8702 18.2817 24.9212 18.2514 24.9767 18.2325C25.0322 18.2137 25.0911 18.2065 25.1495 18.2116C25.8195 18.2116 26.4621 18.4777 26.9359 18.9515C27.4096 19.4253 27.6758 20.0679 27.6758 20.7379ZM30.8874 22.1053C30.878 22.1627 30.857 22.2175 30.8255 22.2664C30.794 22.3153 30.7527 22.3572 30.7043 22.3895C30.6559 22.4217 30.6014 22.4436 30.5441 22.4539C30.4869 22.4641 30.4281 22.4624 30.3716 22.4489C30.315 22.4354 30.2618 22.4104 30.2153 22.3755C30.1688 22.3405 30.1301 22.2963 30.1014 22.2457C30.0728 22.1951 30.0549 22.1391 30.0488 22.0812C30.0428 22.0234 30.0488 21.9649 30.0663 21.9095C30.1575 21.5278 30.2031 21.1366 30.2021 20.7442C30.2021 19.4042 29.6698 18.119 28.7222 17.1715C27.7747 16.2239 26.4895 15.6916 25.1495 15.6916H24.7579C24.7028 15.6957 24.6473 15.689 24.5948 15.6717C24.5422 15.6544 24.4936 15.627 24.4517 15.5909C24.367 15.5181 24.3147 15.4146 24.3063 15.3032C24.298 15.1918 24.3342 15.0816 24.407 14.9969C24.4799 14.9122 24.5834 14.86 24.6948 14.8516C24.8463 14.8389 24.9979 14.8326 25.1495 14.8326C26.714 14.8351 28.2136 15.4584 29.319 16.5656C30.4244 17.6728 31.0453 19.1734 31.0453 20.7379C31.0454 21.1982 30.9925 21.6571 30.8874 22.1053Z" fill="white"/>
</g>
<defs>
<clipPath id="clip0_1_56">
<rect width="48" height="48" fill="white"/>
</clipPath>
</defs>
</svg>
