<svg width="48" height="48" viewBox="0 0 48 48" fill="none" xmlns="http://www.w3.org/2000/svg">
<path d="M24.0547 0H23.9453C10.7207 0 0 10.7207 0 23.9453V24.0547C0 37.2793 10.7207 48 23.9453 48H24.0547C37.2793 48 48 37.2793 48 24.0547V23.9453C48 10.7207 37.2793 0 24.0547 0Z" fill="#00E510"/>
<path d="M28.6776 31.0201C22.5344 31.0201 17.5365 26.0204 17.5348 19.8773C17.5365 18.3201 18.8045 17.0538 20.3583 17.0538C20.5181 17.0538 20.6761 17.0672 20.8275 17.0941C21.1605 17.1496 21.4766 17.2623 21.7676 17.4321C21.8096 17.4574 21.8382 17.4977 21.8449 17.5448L22.494 21.6363C22.5025 21.6851 22.4873 21.7322 22.4554 21.7675C22.0972 22.1644 21.6398 22.4502 21.1302 22.5932L20.8847 22.6621L20.9772 22.8993C21.8146 25.0316 23.5199 26.7351 25.6539 27.576L25.891 27.6702L25.96 27.4246C26.1029 26.9151 26.3888 26.4577 26.7857 26.0995C26.8143 26.0726 26.8529 26.0591 26.8916 26.0591C26.9 26.0591 26.9084 26.0591 26.9185 26.0608L31.01 26.7099C31.0588 26.7183 31.0992 26.7452 31.1244 26.7873C31.2926 27.0782 31.4052 27.396 31.4624 27.729C31.4893 27.877 31.5011 28.0334 31.5011 28.1965C31.5011 29.7521 30.2348 31.0184 28.6776 31.0201Z" fill="#FDFDFD"/>
<path d="M39.5715 22.6521C39.2402 18.9087 37.5249 15.436 34.7418 12.8748C31.9418 10.2985 28.3094 8.87917 24.5105 8.87917C16.1727 8.87917 9.38887 15.663 9.38887 24.0008C9.38887 26.7991 10.1607 29.5251 11.6221 31.8996L8.36304 39.114L18.7978 38.0024C20.6124 38.7457 22.5328 39.1224 24.5088 39.1224C25.0284 39.1224 25.5615 39.0955 26.0963 39.04C26.5672 38.9895 27.0431 38.9155 27.5106 38.8214C34.4929 37.4104 39.59 31.2135 39.6304 24.0815V24.0008C39.6304 23.5467 39.6102 23.0927 39.5699 22.6521H39.5715ZM19.1997 34.8358L13.4266 35.4513L15.1503 31.6322L14.8055 31.1697C14.7803 31.1361 14.7551 31.1025 14.7265 31.0638C13.2298 28.997 12.4394 26.5552 12.4394 24.0025C12.4394 17.3464 17.8544 11.9314 24.5105 11.9314C30.7461 11.9314 36.0316 16.7965 36.5412 23.0069C36.5681 23.3399 36.5832 23.6745 36.5832 24.0041C36.5832 24.0983 36.5815 24.1908 36.5798 24.29C36.452 29.858 32.5623 34.5869 27.1204 35.791C26.7051 35.8835 26.2796 35.9541 25.8558 35.9995C25.4152 36.05 24.9628 36.0752 24.5138 36.0752C22.9146 36.0752 21.3607 35.7658 19.8926 35.1536C19.7295 35.088 19.5697 35.0174 19.42 34.9451L19.2014 34.8392L19.1997 34.8358Z" fill="#FDFDFD"/>
</svg>
