<svg width="48" height="48" viewBox="0 0 48 48" fill="none" xmlns="http://www.w3.org/2000/svg">
<rect width="48" height="48" rx="8" fill="#E23744"/>
<g clip-path="url(#clip0_568_90945)">
<path d="M38.0361 9.51758L37.8708 14.8454L24.0165 29.95C29.8037 29.95 33.4733 29.8933 35.5895 29.7754C34.9761 32.6419 34.4774 34.9853 33.975 38.4987C31.1919 38.2629 26.8532 38.204 22.5122 38.204C17.6733 38.204 13.444 38.2622 10.0498 38.4987L10.1629 33.1104L24.0165 18.0663C17.9517 18.0663 15.7254 18.1237 13.2229 18.1827C13.7774 15.4893 14.1675 12.5049 14.5568 9.51758C18.9521 9.69291 20.6767 9.75038 26.4081 9.75038C31.6943 9.75111 34.697 9.69291 38.0361 9.51758Z" fill="white"/>
</g>
<defs>
<clipPath id="clip0_568_90945">
<rect width="28" height="30" fill="white" transform="translate(10 9)"/>
</clipPath>
</defs>
</svg>
